# xmcd
#
# Track frame offsets: 
#        182
#        12054
#        23594
#        38705
#        50404
#        62357
#        75215
#        86634
#        100590
#        113935
#        128890
#        140983
#        151735
#        163612
#        174256
#        186048
#        198166
#        213348
#        223263
#        236499
#        248832
#        261937
#        275117
#        286114
#
# Disc length: 4010 seconds
#
# Revision: 1
# Processed by: cddbd v1.5.1PL0 Copyright (c) Steve Scherf et al.
# Submitted via: ExactAudioCopy v0.95b1
#
DISCID=410fa818
DTITLE=Tommy Dorsey - 1937 Vol. 3 
DYEAR=1937
DGENRE=Big Band
TTITLE0=All You Want to Do Is Dance
TTITLE1=Having a Wonderful Time
TTITLE2=After You
TTITLE3=Stardust on the Moon
TTITLE4=Have You Got Any Castles, Baby?
TTITLE5=You've Got Something There
TTITLE6=Night and Day
TTITLE7=Smoke Gets in Your Eyes
TTITLE8=Canadian Capers
TTITLE9=The Morning After
TTITLE10=Once in a While
TTITLE11=An Old Flame Never Dies
TTITLE12=You and I Know
TTITLE13=Goodbye, Jonah
TTITLE14=If You Were Someone Else
TTITLE15=The Big Apple
TTITLE16=In the Still of the Night
TTITLE17=Who Knows?
TTITLE18=If It's the Last Thing I Do
TTITLE19=I May Be Wrong, But I Think You're Wonderful
TTITLE20=The Lady Is a Tramp
TTITLE21=Tears in My Heart
TTITLE22=Josephine
TTITLE23=If the Man in the Moon Were a Coon
EXTD=YEAR: 1937
EXTT0=
EXTT1=
EXTT2=
EXTT3=
EXTT4=
EXTT5=
EXTT6=
EXTT7=
EXTT8=
EXTT9=
EXTT10=
EXTT11=
EXTT12=
EXTT13=
EXTT14=
EXTT15=
EXTT16=
EXTT17=
EXTT18=
EXTT19=
EXTT20=
EXTT21=
EXTT22=
EXTT23=
PLAYORDER=
